# xmcd
#
# Track frame offsets:
#	150
#	16987
#	29012
#	46012
#	59532
#	71780
#	86942
#	101615
#	113842
#	125442
#	141430
#	154525
#	170242
#	187902
#	202810
#	218790
#	234397
#	246485
#	259885
#	273430
#	288100
#	303057
#	317230
#	332157
#
# Disc length: 4605 seconds
#
# Revision: 2
# Processed by: cddbd v1.5.2PL0 Copyright (c) Steve Scherf et al.
# Submitted via: EZCDAudioConverter 1.0.8.1
#
DISCID=6511fb18
DTITLE=Various Artist - Number One Country Love Songs Of The 80's
DYEAR=1900
DGENRE=
TTITLE0=Trio - To Know Him Is To Love Him
TTITLE1=Earl Thomas Conley - I Have Loved You, Girl
TTITLE2=John Conlee - I Don't Remember  Loving You
TTITLE3=Ricky Scaggs - Crying My Heart Out Over You
TTITLE4=The O'Kanes - One True Love
TTITLE5=Rodney Crowell and Rosanne Cash - It's Such A Small World
TTITLE6=Alabama - Feels So Right
TTITLE7=Tanya Tucker - Love Me Like You Used To
TTITLE8=Steve Wariner - Baby I'm Yours
TTITLE9=Ronnie Milsap - Happy, Happy Birthday Baby
TTITLE10=Barbara Mandrell - I Wish I Could Fall In Love Today
TTITLE11=Michael Martin Murphey - Talkin' To The Wrong Man
TTITLE12=Kenny Rogers - Lady
TTITLE13=Emmylou Harris - Beneath Still Waters
TTITLE14=Willie Nelson - Let It Be Me
TTITLE15=Don Williams - I Believe In You
TTITLE16=Tanya Tucker - Can I See You Tonight
TTITLE17=Nitty Gritty Dirt Band - I've Been Lookin'
TTITLE18=Highway 101 - (Do You Love Me) Just Say Yes
TTITLE19=The Judds - Mama He's Crazy
TTITLE20=Rosanne Cash - I Don't Know Why
TTITLE21=Ricky Van Shelton - I'll Leave This World Loving You
TTITLE22=Rodney Crowell - I Couldn't Leave You
TTITLE23=Restless Heart - I'll Still Be Loving You
EXTD=
EXTT0=
EXTT1=
EXTT2=
EXTT3=
EXTT4=
EXTT5=
EXTT6=
EXTT7=
EXTT8=
EXTT9=
EXTT10=
EXTT11=
EXTT12=
EXTT13=
EXTT14=
EXTT15=
EXTT16=
EXTT17=
EXTT18=
EXTT19=
EXTT20=
EXTT21=
EXTT22=
EXTT23=
PLAYORDER=
